<?xml version="1.0" encoding="utf-8"?>
<!-- Generator: Adobe Illustrator 25.4.1, SVG Export Plug-In . SVG Version: 6.00 Build 0)  -->
<svg version="1.1" id="Camada_1" xmlns="http://www.w3.org/2000/svg" xmlns:xlink="http://www.w3.org/1999/xlink" x="0px" y="0px"
	 viewBox="0 0 416 130" style="enable-background:new 0 0 416 130;" xml:space="preserve">
<style type="text/css">
	.st0{fill:#2ECC71;}
</style>
<path class="st0" d="M275.1,8.5l-5.4,14.7h18.1l-3.7,9.1h-16.9l-14.6,35.7h-14.2l14.7-35.7l9.1-23.9H275.1z M301.6,32.5l3.6-9.1h-14
	l-3.6,9.1H301.6L301.6,32.5z M286.3,34.4l-13.1,33.9h14.2l12.8-33.8L286.3,34.4L286.3,34.4z M309.1,23.4H323l-12.6,32.3
	c-1.3,3.2,1.6,3.2,4.1,3.2l12.6-0.1l-9.6,9.1h-12.4c-7.3,0-12.8-2.2-10.1-9L309.1,23.4z M240.4,56l1.1-2.6
	c2.1-4.9,2.4-12.4-10.2-12.4l-16.6-0.1l13.6-10.9c0,0,5.2,2.6,6,2.6c5.7,0,12.1-0.2,16.8-0.2l3.8-9.1c0,0-17.6,0-28.5,0
	c-9.6,0-17.9,2.6-21.7,11.5l-1.6,3.8c-1.5,3.5-4.4,12.4,11.2,12.4l17.1,0.7l-12.8,10.4l-7.5-4.6c-0.6,0-12.8,0.2-16.1,0l-12,10.4
	c0,0,22.9,0.3,36,0.3C227.7,68.3,235.9,66.7,240.4,56L240.4,56z M178.2,98.2c0-1.4,0.6-2.2,2.3-2.2c0.9,0,3.6,0.2,4.4,0.3v1h-4.4
	c-1.1,0-1.1,0.4-1.1,1V99c0,0.9,0.5,1,1.1,1h2.7c1.5,0,2.2,0.9,2.2,2.2v0.8c0,1.9-1.1,2.2-2.2,2.2c-0.8,0-4-0.3-4.7-0.3v-0.9h4.7
	c0,0,1,0.1,1-0.9v-0.8c0-0.6-0.2-0.9-1-0.9h-2.7c-1.6,0-2.3-0.5-2.3-2.2V98.2z M191,95.9c3,0,4,1.1,4,4.7c0,3.4-0.9,4.5-4,4.5
	c-3,0-4-1.2-4-4.5C187,97,188,95.9,191,95.9L191,95.9z M191,103.9c1.8,0,2.7-0.2,2.7-3.2c0-3.2-0.7-3.5-2.7-3.5
	c-1.9,0-2.7,0.2-2.7,3.5C188.3,103.7,189.2,103.9,191,103.9z M196.8,91.7h1.3v10.1c0,1.5,0.4,1.8,1,2c0,0,1.4,0.4,1.5,0.4v0.9h-1.5
	c-1.3,0-2.2-0.8-2.2-3.2L196.8,91.7L196.8,91.7z M201.8,96h1.3v6.3c0,1.1,0.7,1.6,1.5,1.6c1.4,0,2-0.3,3.3-1v-7h1.3v9h-0.9l-0.4-1.1
	c-1,0.6-2,1.2-3.3,1.2c-1.8,0-2.8-1.4-2.8-2.9V96z M214,95.9c0.9,0,2.7,0.3,3.9,0.5v0.9c0,0-2.4-0.1-3.9-0.1c-1,0-1.7,0.2-1.7,3.4
	c0,2.6,0.5,3.3,1.7,3.3c1.6,0,4-0.2,4-0.2v1c-1.4,0.4-2.6,0.5-4,0.5c-1.7,0-3-0.7-3-4.6C211,96.6,212.3,95.9,214,95.9z M214.1,107.1
	c0.5-0.2,0.5-0.8,0.5-1.4h1.1c0,1.7-0.4,2.3-1.7,2.3h-0.9v-0.6L214.1,107.1z M223.5,95.9c3,0,4,1.1,4,4.7c0,3.4-0.9,4.5-4,4.5
	c-3,0-4-1.2-4-4.5C219.5,97,220.5,95.9,223.5,95.9L223.5,95.9z M222.7,93.1c0.9,0.1,1.3,0.6,1.8,0.6c0.4,0,1-0.3,1.6-0.6l0.4,0.7
	c-0.6,0.4-1.2,1.1-2,1.1c-1-0.1-1.2-0.6-1.8-0.6c-0.7,0-1,0.4-1.6,0.6l-0.4-0.7C221.4,93.7,222,93.1,222.7,93.1L222.7,93.1z
	 M223.5,103.9c1.8,0,2.7-0.2,2.7-3.2c0-3.2-0.7-3.5-2.7-3.5c-1.9,0-2.7,0.2-2.7,3.5C220.7,103.7,221.7,103.9,223.5,103.9z M233.1,96
	c2.1,0,3.5,0.2,3.5,3.2c0,1.3-0.7,2.1-2.3,2.1h-3.8c0,2.1,0.4,2.7,1.7,2.7c1.6,0,3,0,4.3-0.2v1c-1.4,0.4-2.8,0.5-4.3,0.5
	c-2.3,0-3-1.1-3-4.6C229.1,96.5,230.3,96,233.1,96L233.1,96z M234.2,100c0.7,0,1.1-0.3,1.1-0.8c0-1.8-0.3-1.9-2.2-1.9
	c-1.9,0-2.7,0-2.7,2.8H234.2L234.2,100z M237.9,98.2c0-1.4,0.6-2.2,2.3-2.2c0.9,0,3.6,0.2,4.4,0.3v1h-4.4c-1.1,0-1.1,0.4-1.1,1V99
	c0,0.9,0.5,1,1.1,1h2.7c1.5,0,2.2,0.9,2.2,2.2v0.8c0,1.9-1.1,2.2-2.2,2.2c-0.8,0-4-0.3-4.7-0.3v-0.9h4.7c0,0,1,0.1,1-0.9v-0.8
	c0-0.6-0.2-0.9-1-0.9h-2.7c-1.6,0-2.3-0.5-2.3-2.2L237.9,98.2L237.9,98.2z M251.1,91.7h1.3v10.1c0,1.5,0.4,1.8,1,2
	c0,0,1.4,0.4,1.5,0.4v0.9h-1.5c-1.3,0-2.2-0.8-2.2-3.2L251.1,91.7L251.1,91.7L251.1,91.7z M260.1,95.9c3,0,4,1.1,4,4.7
	c0,3.4-0.9,4.5-4,4.5s-4-1.2-4-4.5C256.1,97,257.1,95.9,260.1,95.9L260.1,95.9z M260.1,103.9c1.8,0,2.7-0.2,2.7-3.2
	c0-3.2-0.7-3.5-2.7-3.5c-1.9,0-2.7,0.2-2.7,3.5C257.3,103.7,258.3,103.9,260.1,103.9z M266.7,101.7c-0.8-0.5-1-1.6-1-2.5
	c0-2.2,1.1-3.2,2.9-3.2h5.3v1l-1.4,0.3c0.2,0.4,0.5,0.7,0.5,2c0,1-0.4,3.3-2.8,3.3h-2.7c-0.3,0-0.7,0.1-0.7,0.5s0.3,0.6,0.7,0.6h3.6
	c1.4,0,2.2,0.9,2.2,2.3v1.1c0,1-0.3,2.6-2.6,2.6h-2.6c-1.6,0-2.7-0.9-2.7-2.6v-1.4l0.7-1.1c-0.5-0.3-0.6-0.9-0.6-1.4
	C265.7,102.5,266,101.8,266.7,101.7L266.7,101.7z M268.4,108.4h2.6c1,0,1.3-0.6,1.3-1.4v-1c0-0.8-0.2-1.2-1.2-1.2h-3.4
	c-0.5,0-0.8-0.1-0.8-0.1v2.3C266.9,108.3,267.8,108.4,268.4,108.4z M268.6,101.3h1.7c1.4,0,1.7-1.3,1.7-2.1c-0.1-1.2-0.3-2-1.7-2
	h-1.5c-1.4,0-1.7,1-1.7,2C267,100,267.2,101.3,268.6,101.3z M275.2,96h1.3v9h-1.3V96z M277.1,92.7h1.6l-2.3,2.3h-1.2L277.1,92.7z
	 M278.2,98.2c0-1.4,0.6-2.2,2.4-2.2c0.9,0,3.6,0.2,4.4,0.3v1h-4.4c-1.1,0-1.1,0.4-1.1,1V99c0,0.9,0.5,1,1.1,1h2.7
	c1.5,0,2.2,0.9,2.2,2.2v0.8c0,1.9-1.1,2.2-2.2,2.2c-0.8,0-4-0.3-4.7-0.3v-0.9h4.7c0,0,1,0.1,1-0.9v-0.8c0-0.6-0.2-0.9-1-0.9h-2.7
	c-1.6,0-2.4-0.5-2.4-2.2V98.2z M286.5,96.3l1.7-0.3l0.3-2.5h1V96h2.6v1.3h-2.6v4.6c0,1.5,0.4,1.8,1,2c0,0,1.4,0.4,1.5,0.4v0.9h-1.5
	c-1.3,0-2.2-0.8-2.2-3.2v-4.6h-1.7L286.5,96.3L286.5,96.3L286.5,96.3z M293.4,93.6c0-0.3,0.1-0.4,0.4-0.4h0.9c0.3,0,0.4,0.2,0.4,0.4
	v0.9c0,0.3-0.2,0.4-0.4,0.4h-0.9c-0.2,0-0.4-0.2-0.4-0.4V93.6z M293.6,96h1.3v9h-1.3V96z M299.8,95.9c0.9,0,2.7,0.2,3.9,0.4v0.9
	c0,0-2.4-0.1-3.9-0.1c-1,0-1.7,0.2-1.7,3.4c0,2.6,0.5,3.3,1.7,3.3c1.6,0,4-0.2,4-0.2v1c-1.4,0.4-2.6,0.5-4,0.5c-1.7,0-3-0.6-3-4.6
	C296.8,96.6,298,95.9,299.8,95.9z M305.1,101.9c0-1.4,0.9-2.3,2.3-2.3c0,0,3.8,0,3.8,0c0,0,0-1.1,0-1.1c0-1-0.5-1.4-1.4-1.4
	c-1.2,0-2.7,0.1-4.4,0.2v-0.9c1.2-0.3,2.7-0.5,4.4-0.5c1.4,0,2.6,0.7,2.6,2.6v6.6h-0.9l-0.3-1.1c0,0-2.2,1.2-3.8,1.2
	c-1.2,0-2.3-0.8-2.3-2.2V101.9z M307.4,103.9c1.4,0,3.8-0.9,3.8-0.9v-2.4l-3.8,0.3c-0.7,0.1-1,0.6-1,1.1v0.9
	C306.4,103.7,306.8,103.9,307.4,103.9z M314,98.2c0-1.4,0.6-2.2,2.3-2.2c0.9,0,3.6,0.2,4.4,0.3v1h-4.4c-1.1,0-1.1,0.4-1.1,1V99
	c0,0.9,0.5,1,1.1,1h2.7c1.5,0,2.2,0.9,2.2,2.2v0.8c0,1.9-1.1,2.2-2.2,2.2c-0.8,0-4-0.3-4.7-0.3v-0.9h4.7c0,0,1,0.1,1-0.9v-0.8
	c0-0.6-0.2-0.9-1-0.9h-2.7c-1.6,0-2.3-0.5-2.3-2.2V98.2z M55.7,102.4L71.4,88l91.4-0.2l-40.9,33.7l-24.8-19.1L55.7,102.4L55.7,102.4
	z"/>
<path class="st0" d="M336.5,72.7l-13,11.8l-212.4,0.1l42.6-36.4L183,73.1L336.5,72.7z"/>
</svg>
